<svg 
 xmlns="http://www.w3.org/2000/svg"
 xmlns:xlink="http://www.w3.org/1999/xlink"
 width="22px" height="22px">
<defs>
<filter id="Filter_0">
    <feFlood flood-color="rgb(199, 178, 153)" flood-opacity="1" result="floodOut" />
    <feComposite operator="atop" in="floodOut" in2="SourceGraphic" result="compOut" />
    <feBlend mode="normal" in="compOut" in2="SourceGraphic" />
</filter>

</defs>
<g filter="url(#Filter_0)">
<path fill-rule="evenodd"  fill="rgb(0, 0, 0)"
 d="M14.417,10.434 L9.645,5.661 C9.358,5.375 8.892,5.375 8.605,5.661 C8.318,5.949 8.318,6.416 8.605,6.702 L12.859,10.957 L8.605,15.211 C8.318,15.498 8.318,15.963 8.605,16.251 C8.892,16.538 9.358,16.538 9.645,16.251 L14.417,11.480 C14.562,11.335 14.634,11.145 14.633,10.957 C14.633,10.767 14.562,10.579 14.417,10.434 ZM11.012,0.026 C4.946,0.026 0.028,4.943 0.028,11.011 C0.028,17.076 4.946,21.995 11.012,21.995 C17.079,21.995 21.997,17.076 21.997,11.011 C21.997,4.943 17.079,0.026 11.012,0.026 ZM11.012,20.523 C5.768,20.523 1.499,16.253 1.499,11.011 C1.499,5.765 5.768,1.497 11.012,1.497 C16.257,1.497 20.525,5.765 20.525,11.011 C20.525,16.253 16.257,20.523 11.012,20.523 Z"/>
</g>
</svg>